<?xml version="1.0" encoding="UTF-8" standalone="no"?>
<!-- Created with Inkscape (http://www.inkscape.org/) -->

<svg
   xmlns:dc="http://purl.org/dc/elements/1.1/"
   xmlns:cc="http://creativecommons.org/ns#"
   xmlns:rdf="http://www.w3.org/1999/02/22-rdf-syntax-ns#"
   xmlns:svg="http://www.w3.org/2000/svg"
   xmlns="http://www.w3.org/2000/svg"
   xmlns:sodipodi="http://sodipodi.sourceforge.net/DTD/sodipodi-0.dtd"
   xmlns:inkscape="http://www.inkscape.org/namespaces/inkscape"
   id="svg3118"
   version="1.1"
   inkscape:version="0.48.3.1 r9886"
   width="1000"
   height="1000"
   sodipodi:docname="druplicon_bullet_2.png">
  <metadata
     id="metadata3124">
    <rdf:RDF>
      <cc:Work
         rdf:about="">
        <dc:format>image/svg+xml</dc:format>
        <dc:type
           rdf:resource="http://purl.org/dc/dcmitype/StillImage" />
        <dc:title></dc:title>
      </cc:Work>
    </rdf:RDF>
  </metadata>
  <defs
     id="defs3122" />
  <sodipodi:namedview
     pagecolor="#ffffff"
     bordercolor="#666666"
     borderopacity="1"
     objecttolerance="10"
     gridtolerance="10"
     guidetolerance="10"
     inkscape:pageopacity="0"
     inkscape:pageshadow="2"
     inkscape:window-width="1317"
     inkscape:window-height="744"
     id="namedview3120"
     showgrid="false"
     showguides="true"
     inkscape:guide-bbox="true"
     inkscape:zoom="0.56053695"
     inkscape:cx="452.94915"
     inkscape:cy="620.1567"
     inkscape:window-x="49"
     inkscape:window-y="24"
     inkscape:window-maximized="1"
     inkscape:current-layer="svg3118">
    <sodipodi:guide
       orientation="0,1"
       position="200.72,146.288"
       id="guide3130" />
  </sodipodi:namedview>
  <path
     style="fill:#000000"
     d="M 471.59962,853.65855 C 396.27241,846.96147 328.99721,821.63163 270.66935,778.00631 160.06092,695.2786 106.2431,564.89365 126.29956,428.24022 c 14.52466,-98.96285 69.62397,-186.88825 155.7918,-248.60668 16.30512,-11.67869 24.59275,-16.53418 61.24077,-35.87926 33.98526,-17.93951 49.96459,-27.56122 68.52003,-41.25829 15.20762,-11.225795 21.47761,-17.075578 28.70872,-26.784677 12.54683,-16.846476 21.68938,-42.953386 24.52628,-70.0357729 0.42697,-4.0760378 1.14255,-7.2671501 1.59017,-7.0913607 0.44763,0.1757893 5.35859,5.7199679 10.91326,12.3203886 17.12572,20.349925 42.98675,48.761745 53.42873,58.69864 24.21754,23.046126 37.26158,30.961452 95.82751,58.149602 38.70338,17.96734 58.29843,29.09315 83.01658,47.13575 83.83834,61.19643 139.08074,148.92695 155.51003,246.96575 4.32691,25.82005 5.39698,39.3536 5.41891,68.53534 0.0213,28.33881 -0.945,41.20337 -4.91675,65.45872 -18.36766,112.17055 -87.85642,206.40954 -189.92878,257.57685 -40.55176,20.32799 -84.24029,33.20972 -131.25163,38.69996 -17.19083,2.00773 -58.1064,2.866 -73.09557,1.53337 z m 118.75963,-50.69116 c 10.71431,-0.87714 22.49688,-2.1377 26.18348,-2.80126 10.49387,-1.88881 28.62445,-7.05032 39.97777,-11.38108 22.25957,-8.49099 54.98536,-27.1596 59.38732,-33.87782 3.85429,-5.8824 3.54956,-15.56774 -0.63098,-20.05503 -3.04368,-3.267 -6.7027,-2.5238 -14.87237,3.02078 -30.72494,20.85234 -80.37953,32.91643 -135.35748,32.88648 -52.45069,-0.0286 -87.72309,-8.27051 -114.16721,-26.67693 -10.09936,-7.02966 -13.47957,-7.54115 -21.94793,-3.32119 -7.81745,3.8956 -11.47025,8.09735 -12.13031,13.95324 -0.84724,7.51679 1.82043,11.77169 12.30989,19.63407 20.61468,15.45176 51.37868,26.25438 82.74696,29.05616 16.58996,1.4818 57.86667,1.2518 78.50086,-0.43742 z M 522.65706,706.8159 c 1.92033,-0.97322 10.36466,-7.29819 18.7652,-14.0555 8.40053,-6.75732 17.56284,-13.82198 20.36069,-15.69926 6.33649,-4.25161 16.89399,-8.27949 26.0806,-9.95024 9.79193,-1.78084 34.69759,-1.52283 44.97215,0.46588 15.25603,2.95292 22.13766,8.30167 30.76071,23.90881 7.99793,14.47572 12.11128,16.81897 19.14086,10.90397 3.28886,-2.7674 3.44749,-3.24614 2.98225,-9.00058 -0.31116,-3.84848 -2.11857,-9.79998 -4.92768,-16.22608 -11.00581,-25.17675 -20.18244,-34.42796 -38.7059,-39.02047 -9.57121,-2.37298 -45.05699,-3.38662 -56.11431,-1.60288 -17.24978,2.78269 -34.52035,11.82895 -54.59671,28.59755 -22.43109,18.73537 -27.25995,26.55556 -22.53981,36.50253 3.20584,6.7558 7.51843,8.37085 13.82195,5.17627 z M 386.76267,682.31784 c 20.12572,-2.24415 46.52021,-10.2397 74.47265,-22.55963 7.50048,-3.30581 37.20237,-17.87448 66.00422,-32.37483 54.19308,-27.28362 66.15233,-32.30613 82.02282,-34.44698 5.08879,-0.68644 9.87017,-0.68197 13.63723,0.0128 13.49076,2.48805 32.66491,14.87332 58.16793,37.57277 31.60848,28.13373 44.24634,38.03026 54.6424,42.78974 11.59934,5.31035 33.29714,3.35906 48.10558,-4.32617 23.61261,-12.2544 42.09412,-38.72598 52.76723,-75.58004 8.68272,-29.98129 11.752,-63.78714 7.2697,-80.07075 -6.95851,-25.27939 -23.2919,-41.58311 -46.59571,-46.51105 -20.79613,-4.39766 -37.90508,1.58565 -95.46061,33.38439 -67.45462,37.26782 -83.13873,41.80285 -108.69507,31.42886 -12.06811,-4.89876 -23.97926,-12.44479 -52.24857,-33.10083 -55.38132,-40.46645 -81.0274,-54.0014 -117.18538,-61.84564 -8.78728,-1.90635 -14.68451,-2.3925 -29.52695,-2.43415 -25.48117,-0.0715 -38.74282,2.86724 -61.35963,13.5971 -43.05287,20.42513 -77.00078,63.78602 -85.94162,109.77125 -2.86895,14.75577 -2.09922,40.62223 1.63921,55.08516 9.10349,35.21887 37.11996,60.52684 74.74843,67.52208 16.66628,3.09832 45.86129,4.05682 63.53614,2.08595 z M 270.85956,338.18966 c 39.04344,-6.79557 88.11078,-25.40996 142.57557,-54.08804 62.21203,-32.75734 81.78771,-49.92741 81.85223,-71.7936 0.0336,-11.36618 -4.23003,-20.50186 -16.096,-34.48937 -4.55176,-5.36557 -5.53019,-7.08572 -4.03039,-7.08572 3.75777,0 15.00476,-3.36612 21.7748,-6.51699 36.34171,-16.91397 31.11921,-64.517924 -13.69843,-124.863408 l -7.23099,-9.736285 -0.77715,3.735903 c -0.42744,2.054749 -1.58874,8.868118 -2.58066,15.140819 -3.42577,21.66378 -10.09701,40.425033 -19.16631,53.900671 -5.95223,8.84411 -10.62911,13.69105 -21.15784,21.92714 -22.42044,17.53836 -37.65383,27.01468 -74.73203,46.489 -29.42344,15.45386 -38.63226,21.13217 -58.36736,35.99025 -29.75428,22.40129 -61.24539,52.28485 -73.30342,69.56142 -15.72799,22.53483 -20.89644,41.60733 -14.09016,51.99504 2.94237,4.49062 10.1985,9.08643 16.2878,10.31619 3.10589,0.62725 6.62895,1.36827 7.82903,1.6467 3.88918,0.90238 24.83045,-0.37512 34.91131,-2.12972 z"
     id="path3128"
     inkscape:connector-curvature="0" />
</svg>
